# xmcd
#
# Track frame offsets: 
#        150
#        9749
#        59103
#        70262
#        87084
#        94342
#        103126
#        124407
#        142818
#        182600
#        192199
#        239484
#        250873
#        256285
#        271227
#        289108
#        306745
#        338112
#
# Disc length: 4825 seconds
#
# Revision: 0
# Processed by: cddbd v1.5.2PL0 Copyright (c) Steve Scherf et al.
# Submitted via: ExactAudioCopy v0.95b3
#
DISCID=1512d712
DTITLE=Billy Preston  - Live European Tour [SHM-CD Japan]  
DYEAR=1900
DGENRE=
TTITLE0=Day Tripper (US Version)
TTITLE1=The Bus (US Version)
TTITLE2=Let It Be (US Version)
TTITLE3=Will It Go Round In Circles (US Version)
TTITLE4=Lets Go Get Stoned (US Version)
TTITLE5=Space Race (US Version)
TTITLE6=Amazing Grace (US Version)
TTITLE7=That's The Way God Planned It (US Version)
TTITLE8=Outa-Space (US Version)
TTITLE9=Day Tripper (UK Version)
TTITLE10=The Bus (UK Version)
TTITLE11=Let It Be (UK Version)
TTITLE12=Let's Go Get Stoned (UK Version)
TTITLE13=Billy's Bag (UK Version)
TTITLE14=Will It Go Round In Circles (UK Version)
TTITLE15=Outa-Space (UK Version)
TTITLE16=Higher (UK Version)
TTITLE17=Get It Back (UK Version)
EXTD=
EXTT0=
EXTT1=
EXTT2=
EXTT3=
EXTT4=
EXTT5=
EXTT6=
EXTT7=
EXTT8=
EXTT9=
EXTT10=
EXTT11=
EXTT12=
EXTT13=
EXTT14=
EXTT15=
EXTT16=
EXTT17=
PLAYORDER=
